<?xml version="1.0" encoding="UTF-8" standalone="no"?>
<!-- Generator: Adobe Illustrator 19.0.0, SVG Export Plug-In . SVG Version: 6.00 Build 0)  -->

<svg
   xmlns:dc="http://purl.org/dc/elements/1.1/"
   xmlns:cc="http://creativecommons.org/ns#"
   xmlns:rdf="http://www.w3.org/1999/02/22-rdf-syntax-ns#"
   xmlns:svg="http://www.w3.org/2000/svg"
   xmlns="http://www.w3.org/2000/svg"
   xmlns:sodipodi="http://sodipodi.sourceforge.net/DTD/sodipodi-0.dtd"
   xmlns:inkscape="http://www.inkscape.org/namespaces/inkscape"
   version="1.1"
   id="Capa_1"
   x="0px"
   y="0px"
   viewBox="0 0 32 32"
   xml:space="preserve"
   sodipodi:docname="favicon.svg"
   width="32"
   height="32"
   inkscape:version="0.92.3 (2405546, 2018-03-11)"><metadata
   id="metadata109"><rdf:RDF><cc:Work
       rdf:about=""><dc:format>image/svg+xml</dc:format><dc:type
         rdf:resource="http://purl.org/dc/dcmitype/StillImage" /><dc:title></dc:title></cc:Work></rdf:RDF></metadata><defs
   id="defs107" /><sodipodi:namedview
   pagecolor="#ffffff"
   bordercolor="#666666"
   borderopacity="1"
   objecttolerance="10"
   gridtolerance="10"
   guidetolerance="10"
   inkscape:pageopacity="0"
   inkscape:pageshadow="2"
   inkscape:window-width="1920"
   inkscape:window-height="986"
   id="namedview105"
   showgrid="false"
   inkscape:zoom="10.673584"
   inkscape:cx="36.11823"
   inkscape:cy="8.4289222"
   inkscape:window-x="-11"
   inkscape:window-y="-11"
   inkscape:window-maximized="1"
   inkscape:current-layer="Capa_1" />










































<g
   id="g236"
   transform="translate(-10.5)"><circle
     id="circle2"
     r="15.3125"
     cy="16.6875"
     cx="26.3125"
     style="fill:#1a2b63;stroke-width:0.0625" /><path
     inkscape:connector-curvature="0"
     id="path4"
     d="m 23.86225,23.682812 c 0.790625,0 1.519,0.397625 1.948437,1.06375 0.01056,0.01644 0.02831,0.027 0.04781,0.02844 0.0016,1.25e-4 0.0032,1.87e-4 0.0048,1.87e-4 0.01788,0 0.03494,-0.0076 0.04681,-0.02112 0.64375,-0.728187 1.56925,-1.145812 2.539188,-1.145812 0.3305,0 0.64975,0.04837 0.951937,0.137062 l -1.11542,-2.859069 h -3.946625 l -1.127562,2.89025 c 0.206562,-0.06062 0.42475,-0.09369 0.650625,-0.09369 z"
     style="fill:#d9eafc;stroke-width:0.0625" /><g
     transform="matrix(0.0625,0,0,0.0625,10.3125,0)"
     id="g10">
	<path
   inkscape:connector-curvature="0"
   id="path6"
   d="m 232.659,334.179 h -8.232 l -18.041,46.244 c 2.808,-0.823 5.756,-1.306 8.794,-1.44 z"
   style="fill:#aec1ed" />
	<path
   inkscape:connector-curvature="0"
   id="path8"
   d="m 197.586,426.192 c 0.04,0.264 0.183,0.501 0.398,0.659 0.172,0.127 0.38,0.194 0.591,0.194 0.052,0 0.105,-0.004 0.157,-0.012 3.57,-0.568 7.155,-0.856 10.655,-0.856 17.099,0 33.41,6.425 45.931,18.091 0.192,0.179 0.437,0.268 0.682,0.268 0.245,0 0.49,-0.089 0.682,-0.268 12.52,-11.666 28.832,-18.091 45.931,-18.091 3.499,0 7.085,0.288 10.655,0.856 0.053,0.008 0.105,0.012 0.157,0.012 0.211,0 0.419,-0.067 0.591,-0.194 0.215,-0.158 0.358,-0.395 0.398,-0.659 1.848,-12.438 6.529,-24.218 13.552,-34.499 -9.878,-9.272 -23.159,-14.962 -37.778,-14.962 -16.477,0 -31.259,7.226 -41.376,18.671 -6.776,-10.511 -18.578,-17.478 -32.015,-17.478 -12.889,0 -24.273,6.411 -31.162,16.212 6.13,9.689 10.248,20.591 11.951,32.056 z"
   style="fill:#aec1ed" />
</g><path
     inkscape:connector-curvature="0"
     id="path12"
     d="m 22.7235,26.627812 c -0.376125,-2.531875 -2.558438,-4.474437 -5.194938,-4.474437 -1.830312,0 -3.441312,0.9365 -4.381562,2.356062 1.439625,2.417938 3.526562,4.404688 6.0215,5.723188 0.266812,-1.847875 1.7155,-3.312563 3.555,-3.604813 z"
     style="fill:#445ea0;stroke-width:0.0625" /><path
     inkscape:connector-curvature="0"
     id="path14"
     d="m 18.053062,22.799188 c 1.3395,0 2.567376,0.475124 3.526563,1.264812 -0.963313,-1.166562 -2.419938,-1.910625 -4.051063,-1.910625 -1.830312,0 -3.441312,0.9365 -4.381562,2.356062 0.124188,0.208563 0.253563,0.41375 0.38725,0.615751 1.007438,-1.407875 2.6555,-2.326 4.518812,-2.326 z"
     style="fill:#293d7c;stroke-width:0.0625" /><path
     inkscape:connector-curvature="0"
     id="path16"
     d="m 35.096437,22.153375 c -2.636499,0 -4.818812,1.942625 -5.194937,4.474437 1.8395,0.29225 3.288187,1.756938 3.555,3.604813 2.494875,-1.3185 4.581875,-3.305313 6.0215,-5.723188 -0.94025,-1.419562 -2.55125,-2.356062 -4.381563,-2.356062 z"
     style="fill:#445ea0;stroke-width:0.0625" /><g
     transform="matrix(0.0625,0,0,0.0625,10.3125,0)"
     id="g22">
	<path
   inkscape:connector-curvature="0"
   id="path18"
   d="m 401.627,354.61 c -1.682,-0.1 -3.376,-0.156 -5.084,-0.156 -42.184,0 -77.101,31.082 -83.119,71.591 3.136,0.498 6.196,1.222 9.174,2.131 8.362,-38.279 39.806,-67.92 79.029,-73.566 z"
   style="fill:#293d7c" />
	<path
   inkscape:connector-curvature="0"
   id="path20"
   d="m 302.612,425.177 c -18.016,0 -34.395,6.976 -46.612,18.359 -12.217,-11.384 -28.596,-18.359 -46.612,-18.359 -34.435,0 -62.92,25.446 -67.695,58.558 C 175.821,501.772 214.713,512 256,512 c 41.287,0 80.179,-10.228 114.307,-28.265 -4.775,-33.112 -33.26,-58.558 -67.695,-58.558 z"
   style="fill:#293d7c" />
</g><path
     inkscape:connector-curvature="0"
     id="path24"
     d="m 24.292875,27.105062 c 0.589687,0 1.152437,0.114688 1.6675,0.322625 -0.713938,-0.535562 -1.6,-0.854124 -2.561188,-0.854124 -2.152187,0 -3.9325,1.590374 -4.230937,3.659874 0.251438,0.132875 0.507125,0.25875 0.766562,0.37775 0.437938,-2.004687 2.221938,-3.506125 4.358063,-3.506125 z"
     style="fill:#1a2b63;stroke-width:0.0625" /><g
     transform="matrix(0.0625,0,0,0.0625,10.3125,0)"
     id="g30">
	<path
   inkscape:connector-curvature="0"
   id="path26"
   d="m 278.528,334.179 h -15.119 l 1.929,15.261 c 0.519,4.11 4.277,7.017 8.381,6.5 4.109,-0.52 7.02,-4.272 6.5,-8.381 z"
   style="fill:#aec1ed" />
	<path
   inkscape:connector-curvature="0"
   id="path28"
   d="m 233.472,334.179 -3.966,31.38 c -0.519,4.109 2.391,7.862 6.501,8.381 0.319,0.04 0.636,0.06 0.95,0.06 3.723,-10e-4 6.953,-2.771 7.432,-6.561 l 4.204,-33.261 h -15.121 z"
   style="fill:#aec1ed" />
</g><path
     inkscape:connector-curvature="0"
     id="path32"
     d="m 21.50675,12.232312 c 0,-0.509687 0.01912,-1.018 0.05487,-1.522625 -1.50375,0.846813 -2.53975,2.733313 -2.53975,4.917375 0,1.1535 0.286812,2.253563 0.829375,3.18125 0.05094,0.08713 0.143125,0.136938 0.238875,0.136938 0.035,0 0.07044,-0.0066 0.1045,-0.02056 0.713063,-0.2915 1.475063,-0.44125 2.26525,-0.4475 -0.623938,-1.9205 -0.953125,-4.06525 -0.953125,-6.244875 z"
     style="fill:#fe3745;stroke-width:0.0625" /><path
     inkscape:connector-curvature="0"
     id="path34"
     d="m 19.730562,15.627062 c 0,-1.803937 0.707188,-3.404187 1.8005,-4.383937 0.0084,-0.178188 0.01806,-0.356063 0.03063,-0.533438 -1.503749,0.846813 -2.53975,2.733313 -2.53975,4.917375 0,1.1535 0.286813,2.253563 0.829375,3.18125 0.05094,0.08713 0.143125,0.136938 0.238875,0.136938 0.035,0 0.07044,-0.0066 0.1045,-0.02056 0.1175,-0.04806 0.236875,-0.09081 0.356938,-0.131125 -0.537062,-0.924625 -0.821062,-2.019062 -0.821063,-3.1665 z"
     style="fill:#b7092b;stroke-width:0.0625" /><g
     transform="matrix(0.0625,0,0,0.0625,10.3125,0)"
     id="g40">
	<path
   inkscape:connector-curvature="0"
   id="path36"
   d="m 332.013,171.355 c 0.572,8.075 0.878,16.208 0.878,24.362 0,34.873 -5.267,69.189 -15.251,99.918 12.644,0.1 24.835,2.496 36.244,7.16 0.545,0.223 1.113,0.329 1.672,0.329 1.533,0 3.007,-0.798 3.822,-2.191 8.682,-14.843 13.27,-32.444 13.27,-50.9 10e-4,-34.945 -16.575,-65.129 -40.635,-78.678 z"
   style="fill:#fe3745" />
	<path
   inkscape:connector-curvature="0"
   id="path38"
   d="m 217.708,307.125 v 23.054 c 0,2.75 2.25,5 5,5 h 66.583 c 2.75,0 5,-2.25 5,-5 v -23.054 z"
   style="fill:#fe3745" />
</g><path
     inkscape:connector-curvature="0"
     id="path42"
     d="M 24.982188,20.636187 V 19.195312 H 23.91925 v 1.440875 c 0,0.171875 0.140625,0.3125 0.3125,0.3125 h 1.062938 c -0.171875,0 -0.3125,-0.140625 -0.3125,-0.3125 z"
     style="fill:#b7092b;stroke-width:0.0625" /><path
     inkscape:connector-curvature="0"
     id="path44"
     d="m 30.115875,5.644875 h -7.606813 c -0.697125,2.0095625 -1.064812,4.2714375 -1.064812,6.587437 0,2.407625 0.399312,4.774188 1.154687,6.84375 0.03988,0.109125 0.143625,0.18175 0.259813,0.18175 h 6.907437 c 0.116188,0 0.22,-0.07263 0.259813,-0.18175 0.755375,-2.069562 1.154687,-4.436125 1.154687,-6.84375 C 31.18075,9.9163125 30.813062,7.6545 30.115875,5.644875 Z"
     style="fill:#eef6ff;stroke-width:0.0625" /><path
     inkscape:connector-curvature="0"
     id="path46"
     d="m 23.48475,19.076062 c -0.755438,-2.069562 -1.154688,-4.436124 -1.154688,-6.84375 0,-2.3159995 0.367688,-4.5778745 1.064813,-6.587437 h -0.88575 c -0.697125,2.0095625 -1.064812,4.2714375 -1.064812,6.587437 0,2.407625 0.399312,4.774188 1.154687,6.84375 0.03987,0.109125 0.143625,0.18175 0.259812,0.18175 h 0.88575 c -0.116187,0 -0.219937,-0.07263 -0.259812,-0.18175 z"
     style="fill:#d9eafc;stroke-width:0.0625" /><path
     inkscape:connector-curvature="0"
     id="path48"
     d="M 24.511187,5.644875 V 6.682 c 0,0.171875 0.140625,0.3125 0.3125,0.3125 h 2.977626 c 0.171875,0 0.3125,-0.140625 0.3125,-0.3125 V 5.644875 Z"
     style="fill:#ea2a3d;stroke-width:0.0625" /><path
     inkscape:connector-curvature="0"
     id="path50"
     d="M 25.219812,6.682 V 5.644875 H 24.511187 V 6.682 c 0,0.171875 0.140625,0.3125 0.3125,0.3125 h 0.708625 c -0.171875,0 -0.3125,-0.140625 -0.3125,-0.3125 z"
     style="fill:#b7092b;stroke-width:0.0625" /><path
     inkscape:connector-curvature="0"
     id="path52"
     d="M 26.3125,0 C 26.25081,0 26.189187,0.0205625 26.138438,0.061625 24.742312,1.1921875 23.566313,2.9071875 22.73775,5.02125 22.64963,5.2461875 22.566812,5.4755625 22.487375,5.707375 h 7.650188 C 30.058125,5.4755625 29.975312,5.2461875 29.887188,5.02125 29.058625,2.9071875 27.882688,1.1921875 26.4865,0.061625 26.435812,0.0205625 26.374188,0 26.3125,0 Z"
     style="fill:#fe3745;stroke-width:0.0625" /><path
     inkscape:connector-curvature="0"
     id="path54"
     d="M 26.755375,0.28925 C 26.666688,0.2110625 26.577125,0.135 26.486563,0.061625 26.435812,0.0205625 26.374188,0 26.3125,0 26.250813,0 26.189187,0.0205625 26.138438,0.061625 24.742312,1.1921875 23.566313,2.9071875 22.73775,5.02125 22.649625,5.2461875 22.566812,5.4755625 22.487375,5.707375 h 0.88575 c 0.07944,-0.2318125 0.16225,-0.4611875 0.250375,-0.686125 0.774875,-1.9769375 1.8535,-3.6045625 3.131875,-4.732 z"
     style="fill:#b7092b;stroke-width:0.0625" /><circle
     id="circle56"
     r="3.18875"
     cy="11.308125"
     cx="26.3125"
     style="fill:#445ea0;stroke-width:0.0625" /><circle
     id="circle58"
     r="2.0456874"
     cy="11.308125"
     cx="26.3125"
     style="fill:#69cdff;stroke-width:0.0625" /><path
     inkscape:connector-curvature="0"
     id="path60"
     d="m 25.01675,11.30825 c 0,1.001688 0.720062,1.834688 1.67075,2.010875 -0.121625,0.0225 -0.246813,0.03487 -0.375,0.03487 -1.129875,0 -2.045688,-0.915937 -2.045688,-2.04575 0,-1.129812 0.915875,-2.0456875 2.045688,-2.0456875 0.128125,0 0.253375,0.012375 0.375,0.034875 -0.950688,0.1761875 -1.67075,1.0091255 -1.67075,2.0108125 z"
     style="fill:#52bbef;stroke-width:0.0625" /><path
     inkscape:connector-curvature="0"
     id="path62"
     d="m 17.196,11.171063 c -0.07169,0 -0.136313,-0.04319 -0.16375,-0.109438 C 16.683312,10.219188 16.426062,9.962 15.583625,9.6130625 15.517375,9.585625 15.47425,9.521 15.47425,9.4493125 c 0,-0.071687 0.04319,-0.1363125 0.109375,-0.16375 C 16.426125,8.9365 16.683312,8.67925 17.03225,7.836875 17.05969,7.770625 17.12431,7.7274375 17.196,7.7274375 c 0.07169,0 0.136312,0.043188 0.16375,0.1094375 0.349,0.842375 0.60625,1.099625 1.448687,1.4486875 0.06625,0.027438 0.109438,0.092063 0.109438,0.16375 0,0.071688 -0.04319,0.136375 -0.109438,0.16375 -0.842437,0.348875 -1.099687,0.6061255 -1.448687,1.4485625 -0.02744,0.06625 -0.09206,0.109438 -0.16375,0.109438 z"
     style="fill:#ffd00d;stroke-width:0.0625" /><path
     inkscape:connector-curvature="0"
     id="path64"
     d="M 17.386562,10.707313 C 17.037625,9.864875 16.780375,9.6076875 15.937938,9.25875 c -0.04163,-0.017187 -0.07406,-0.049187 -0.0925,-0.088312 -0.08087,0.037875 -0.167124,0.075875 -0.261812,0.115125 -0.06625,0.027438 -0.109375,0.092063 -0.109375,0.16375 0,0.071688 0.04319,0.136375 0.109375,0.16375 0.842437,0.3489375 1.099687,0.606125 1.448625,1.448563 0.02744,0.06625 0.09206,0.109437 0.16375,0.109437 0.07169,0 0.136312,-0.04319 0.16375,-0.109437 0.03919,-0.09469 0.07725,-0.180937 0.115062,-0.26175 -0.03906,-0.01844 -0.071,-0.05094 -0.08825,-0.09256 z"
     style="fill:#ffaf10;stroke-width:0.0625" /><path
     inkscape:connector-curvature="0"
     id="path66"
     d="m 36.029313,12.58775 c -0.063,0 -0.119813,-0.03794 -0.143938,-0.09619 -0.306688,-0.7405 -0.532812,-0.966563 -1.273313,-1.27325 -0.05819,-0.02406 -0.09619,-0.08094 -0.09619,-0.143938 0,-0.06306 0.03794,-0.119812 0.09619,-0.143937 0.740563,-0.306813 0.966625,-0.532938 1.273313,-1.2733755 0.02412,-0.05825 0.08094,-0.096188 0.143938,-0.096188 0.063,0 0.119812,0.037937 0.143937,0.096188 0.30675,0.7404995 0.532875,0.9665625 1.273437,1.2733755 0.05819,0.02412 0.09613,0.08087 0.09613,0.143937 0,0.063 -0.03794,0.119812 -0.09619,0.143938 -0.7405,0.306687 -0.966625,0.53275 -1.273375,1.27325 -0.02406,0.05819 -0.08088,0.09619 -0.143937,0.09619 z"
     style="fill:#ffffff;stroke-width:0.0625" /><path
     inkscape:connector-curvature="0"
     id="path68"
     d="m 36.196812,12.180125 c -0.30675,-0.7405 -0.532812,-0.966562 -1.273375,-1.273312 -0.03656,-0.01512 -0.06513,-0.04319 -0.08131,-0.07762 -0.07106,0.03325 -0.146937,0.06669 -0.230125,0.101187 -0.05819,0.02412 -0.09619,0.08088 -0.09619,0.143938 0,0.063 0.03794,0.119812 0.09619,0.143937 0.740562,0.306688 0.966625,0.53275 1.273312,1.27325 0.02412,0.05825 0.08094,0.09619 0.143938,0.09619 0.063,0 0.119812,-0.03794 0.143937,-0.09619 0.03444,-0.08319 0.06788,-0.159062 0.101188,-0.230125 -0.03431,-0.01612 -0.06237,-0.04469 -0.07756,-0.08125 z"
     style="fill:#d9eafc;stroke-width:0.0625" /><path
     inkscape:connector-curvature="0"
     id="path70"
     d="m 34.404313,6.0044375 c -0.07344,0 -0.139626,-0.04425 -0.167751,-0.1120625 C 33.879187,5.0295 33.61575,4.7660625 32.752875,4.40875 c -0.06781,-0.028063 -0.112,-0.094313 -0.112,-0.1676875 0,-0.0735 0.04425,-0.139625 0.112,-0.16775 0.862938,-0.3575 1.126375,-0.6209375 1.483687,-1.4836875 0.02813,-0.067875 0.09431,-0.112125 0.167751,-0.112125 0.07344,0 0.139624,0.04425 0.167749,0.112125 0.357438,0.8628125 0.620875,1.12625 1.483751,1.4836875 0.06781,0.028125 0.111999,0.09425 0.111999,0.16775 0,0.073375 -0.04425,0.139625 -0.112062,0.1676875 C 35.192875,4.7660625 34.9295,5.0295625 34.572,5.892375 34.54394,5.960187 34.47775,6.0044375 34.404313,6.0044375 Z"
     style="fill:#ff9518;stroke-width:0.0625" /><path
     inkscape:connector-curvature="0"
     id="path72"
     d="M 34.5995,5.5295 C 34.242063,4.6666875 33.978625,4.40325 33.11575,4.045875 33.073125,4.02825 33.039937,3.9955 33.021,3.9554375 c -0.08275,0.038813 -0.171188,0.07775 -0.268188,0.117875 -0.06781,0.028125 -0.112,0.09425 -0.112,0.16775 0,0.073375 0.04425,0.139625 0.112,0.1676875 0.862875,0.357375 1.126375,0.6208125 1.483688,1.483625 0.02813,0.067812 0.09431,0.1120625 0.16775,0.1120625 0.07344,0 0.139625,-0.04425 0.16775,-0.1120625 C 34.61219,5.795375 34.65112,5.707 34.689875,5.62425 34.649812,5.605375 34.617125,5.572125 34.5995,5.5295 Z"
     style="fill:#ef8318;stroke-width:0.0625" /><g
     transform="translate(0,-480)"
     id="g74">
</g><g
     transform="translate(0,-480)"
     id="g76">
</g><g
     transform="translate(0,-480)"
     id="g78">
</g><g
     transform="translate(0,-480)"
     id="g80">
</g><g
     transform="translate(0,-480)"
     id="g82">
</g><g
     transform="translate(0,-480)"
     id="g84">
</g><g
     transform="translate(0,-480)"
     id="g86">
</g><g
     transform="translate(0,-480)"
     id="g88">
</g><g
     transform="translate(0,-480)"
     id="g90">
</g><g
     transform="translate(0,-480)"
     id="g92">
</g><g
     transform="translate(0,-480)"
     id="g94">
</g><g
     transform="translate(0,-480)"
     id="g96">
</g><g
     transform="translate(0,-480)"
     id="g98">
</g><g
     transform="translate(0,-480)"
     id="g100">
</g><g
     transform="translate(0,-480)"
     id="g102">
</g></g>
</svg>