<?xml version="1.0" standalone="no"?>
<!DOCTYPE svg PUBLIC "-//W3C//DTD SVG 20010904//EN"
 "http://www.w3.org/TR/2001/REC-SVG-20010904/DTD/svg10.dtd">
<svg version="1.0" xmlns="http://www.w3.org/2000/svg"
 width="800.000000pt" height="800.000000pt" viewBox="0 0 800.000000 800.000000"
 preserveAspectRatio="xMidYMid meet">
<metadata>
Created by potrace 1.11, written by Peter Selinger 2001-2013
</metadata>
<g transform="translate(0.000000,800.000000) scale(0.100000,-0.100000)"
fill="#000000" stroke="none">
<path d="M3824 7912 c-55 -49 -135 -130 -179 -180 -43 -51 -86 -94 -94 -96 -9
-3 -45 -8 -81 -11 -106 -11 -325 -53 -475 -92 -526 -135 -1027 -389 -1465
-741 -129 -105 -377 -348 -491 -482 -511 -604 -828 -1357 -899 -2140 -15 -169
-12 -561 5 -725 51 -481 176 -909 392 -1340 41 -82 78 -154 83 -160 4 -5 22
-37 40 -70 18 -33 73 -119 122 -191 586 -865 1502 -1457 2521 -1629 255 -43
349 -50 657 -50 306 0 427 10 685 56 646 115 1297 427 1805 866 133 114 372
359 472 483 472 586 749 1255 840 2025 17 145 17 646 0 785 -46 380 -123 691
-249 1010 -240 606 -633 1149 -1122 1549 l-98 80 -50 -29 c-59 -34 -139 -118
-173 -183 -14 -26 -29 -47 -33 -47 -4 0 -20 26 -34 58 -68 151 -146 232 -284
296 -41 19 -77 38 -81 42 -4 4 20 23 53 43 66 39 139 101 139 119 0 16 -346
183 -513 246 -266 102 -596 185 -870 220 l-108 13 -36 44 c-62 74 -205 219
-266 270 -82 69 -92 68 -213 -39z m1145 -1533 c147 -512 210 -1001 198 -1548
-8 -380 -39 -650 -113 -996 -59 -280 -158 -598 -196 -632 -19 -17 -68 -18
-910 -18 l-890 0 -19 23 c-38 47 -152 435 -203 692 -116 577 -132 1220 -46
1813 39 261 92 497 167 740 l36 117 254 0 253 0 0 -125 c0 -137 12 -180 53
-190 12 -3 199 -4 415 -3 l394 3 19 24 c17 20 19 40 19 157 l0 134 253 2 c172
2 254 0 259 -8 4 -6 30 -89 57 -185z m-3277 -321 c9 -7 38 -55 64 -106 58
-115 122 -176 249 -241 76 -39 90 -50 93 -73 3 -25 -4 -30 -94 -74 -125 -61
-193 -127 -247 -239 -21 -44 -42 -87 -46 -95 -5 -8 -21 -15 -37 -15 -26 0 -33
8 -72 88 -62 126 -130 195 -249 254 -95 47 -121 71 -106 97 4 8 54 37 110 65
124 63 181 120 243 248 51 105 61 115 92 91z m4762 -546 c58 -110 106 -156
221 -216 66 -34 80 -45 80 -65 0 -20 -14 -31 -83 -66 -111 -56 -173 -118 -223
-222 -21 -45 -44 -85 -49 -88 -24 -15 -48 10 -86 87 -51 108 -114 171 -222
222 -77 38 -102 62 -87 86 3 5 44 28 89 50 110 52 163 105 221 220 60 120 72
120 139 -8z m-1869 -3088 l130 -336 88 -38 c97 -42 174 -86 226 -130 l34 -29
-25 -39 c-73 -110 -153 -306 -178 -437 l-12 -61 -156 0 c-173 0 -259 -16 -409
-74 -88 -33 -216 -110 -283 -168 l-44 -39 -78 62 c-196 154 -452 235 -709 222
l-116 -6 -6 42 c-12 88 -60 227 -119 346 l-62 124 70 66 c65 61 124 97 214
134 33 13 38 22 99 178 35 90 95 244 133 342 l70 177 501 0 502 0 130 -336z"/>
<path d="M3807 5954 c-311 -56 -567 -306 -631 -616 -56 -269 29 -545 225 -735
166 -159 364 -233 596 -220 129 7 200 25 310 79 303 147 485 496 433 828 -55
349 -321 615 -670 670 -86 13 -167 11 -263 -6z m294 -294 c214 -66 359 -262
359 -484 0 -238 -148 -431 -380 -495 -128 -36 -227 -25 -356 39 -137 67 -233
189 -269 342 -59 251 86 510 335 595 87 30 221 31 311 3z"/>
</g>
</svg>
